<?xml version="1.0" standalone="no"?>
<!DOCTYPE svg PUBLIC "-//W3C//DTD SVG 20010904//EN"
 "http://www.w3.org/TR/2001/REC-SVG-20010904/DTD/svg10.dtd">
<svg version="1.0" xmlns="http://www.w3.org/2000/svg"
 width="1024.000000pt" height="1024.000000pt" viewBox="0 0 1024.000000 1024.000000"
 preserveAspectRatio="xMidYMid meet">

<g transform="translate(0.000000,1024.000000) scale(0.100000,-0.100000)"
fill="#000000" stroke="none">
<path d="M5291 7879 c-100 -20 -184 -80 -233 -166 -28 -49 -32 -53 -68 -53
-113 0 -237 -75 -287 -174 -30 -58 -41 -157 -25 -206 11 -29 9 -34 -18 -63
-57 -61 -74 -111 -80 -235 -3 -63 -3 -116 -1 -118 2 -2 79 -4 170 -4 l166 0
75 75 76 76 49 -22 c102 -45 257 0 347 100 l44 49 67 -5 c156 -13 288 79 332
232 51 173 -76 360 -247 366 -41 2 -50 7 -87 50 -68 79 -179 118 -280 98z"/>
<path d="M4334 6651 c-2 -2 -4 -41 -4 -85 -1 -167 -47 -938 -57 -944 -5 -4
-195 -128 -421 -276 l-412 -270 0 -1203 0 -1203 -70 0 -70 0 0 -105 0 -105
1635 0 1635 0 0 105 0 105 -95 0 -95 0 0 1520 c0 836 -2 1520 -5 1520 -3 0
-62 -35 -132 -79 -145 -89 -733 -444 -745 -449 -4 -2 -9 111 -10 252 l-3 255
-195 -104 c-107 -57 -196 -102 -198 -100 -3 3 -70 1089 -72 1152 0 10 -80 13
-341 15 -187 2 -343 1 -345 -1z m306 -1996 l0 -155 -140 0 -140 0 0 155 0 155
140 0 140 0 0 -155z m590 0 l0 -155 -140 0 -140 0 0 155 0 155 140 0 140 0 0
-155z m590 0 l0 -155 -135 0 -135 0 0 155 0 155 135 0 135 0 0 -155z m-789
-457 c0 -29 4 -74 7 -101 7 -46 8 -48 68 -76 l60 -28 86 63 85 62 77 -77 78
-78 -61 -82 -60 -81 24 -53 c14 -28 25 -57 25 -63 0 -8 35 -15 93 -20 l92 -9
0 -115 0 -115 -40 -2 c-22 -2 -64 -6 -92 -9 l-53 -5 -29 -61 -29 -61 63 -81
64 -81 -76 -77 -76 -77 -88 61 -88 61 -59 -28 c-57 -27 -60 -30 -66 -73 -3
-25 -6 -67 -6 -93 l0 -49 -110 0 -110 0 0 93 0 94 -62 27 c-35 14 -67 26 -73
26 -5 0 -46 -27 -90 -60 l-80 -59 -79 79 -79 78 65 80 65 81 -29 60 -30 60
-62 5 c-33 3 -74 7 -91 8 l-30 3 -3 113 c-1 61 -1 112 0 113 2 0 45 6 96 12
l93 12 24 60 c28 68 30 60 -52 168 l-45 57 73 78 c40 42 76 76 81 74 4 -1 42
-27 83 -57 41 -30 77 -55 81 -55 4 0 38 12 76 28 l68 27 0 98 0 97 110 0 110
0 1 -52z"/>
<path d="M4820 3803 c-27 -10 -65 -37 -95 -67 -84 -84 -105 -181 -64 -292 72
-193 309 -245 455 -100 65 66 89 130 82 227 -14 184 -196 296 -378 232z"/>
</g>
</svg>
